<svg width="423" height="127" viewBox="0 0 423 127" fill="none" xmlns="http://www.w3.org/2000/svg">
<path fill-rule="evenodd" clip-rule="evenodd" d="M0.248074 28.904C0.248074 13.3067 12.8922 0.662598 28.4895 0.662598H135.691C151.289 0.662598 163.933 13.3067 163.933 28.904C163.933 44.5013 151.289 57.1454 135.691 57.1454H93.7773C90.1875 57.1454 87.2774 60.0555 87.2774 63.6453C87.2774 67.2351 90.1875 70.1452 93.7773 70.1452H393.898C409.496 70.1452 422.14 82.7893 422.14 98.3865C422.14 113.984 409.496 126.628 393.898 126.628H28.4894C12.8922 126.628 0.248047 113.984 0.248047 98.3865C0.248047 82.7893 12.8921 70.1452 28.4894 70.1452H70.4031C73.9929 70.1452 76.903 67.2351 76.903 63.6453C76.903 60.0555 73.9929 57.1454 70.4031 57.1454H28.4895C12.8922 57.1454 0.248074 44.5013 0.248074 28.904ZM167.549 110.582C165.57 110.582 164.022 110.303 162.909 109.74C161.793 109.18 161.014 108.342 160.569 107.218C160.123 106.098 159.901 104.714 159.901 103.059V93.6921C159.901 91.0035 160.499 89.021 161.699 87.748C162.895 86.475 164.847 85.835 167.553 85.835H180.133C182.056 85.835 183.524 85.9394 184.543 86.1515C185.559 86.3602 186.07 86.5794 186.07 86.8019L185.235 90.287C184.762 90.2035 183.361 90.1131 181.034 90.0122C178.707 89.9148 175.33 89.8662 170.899 89.8662H168.766C166.537 89.8662 165.424 90.8609 165.424 92.8504V103.563C165.424 104.516 165.667 105.25 166.154 105.768C166.641 106.286 167.514 106.544 168.766 106.544H170.481C175.107 106.544 178.696 106.495 181.246 106.398C183.795 106.3 185.378 106.196 185.99 106.081L187.705 108.853C187.705 108.992 187.475 109.204 187.016 109.483C186.557 109.764 185.712 110.015 184.487 110.237C183.26 110.46 181.493 110.575 179.18 110.575H167.56L167.549 110.582ZM74.3367 110.582V89.2435L73.9193 85.8419H92.4367C94.221 85.8419 95.6192 86.0819 96.6382 86.5549C97.6538 87.0314 98.4086 87.654 98.8955 88.4226C99.3825 89.1948 99.6955 90.0121 99.8346 90.8817C99.9737 91.7512 100.043 92.5755 100.043 93.3615V95.8414C100.043 96.4849 99.9459 97.2083 99.7511 98.0048C99.5564 98.8013 99.1947 99.5734 98.666 100.314C98.1373 101.055 97.3687 101.674 96.367 102.161C95.3653 102.652 94.054 102.895 92.4367 102.895H88.1726C86.4161 102.895 84.7779 102.853 83.2615 102.77C81.7415 102.686 80.6077 102.617 79.8564 102.561V110.585H74.3402L74.3367 110.582ZM79.8529 98.8604H91.2228C92.4784 98.8604 93.341 98.5509 93.814 97.9352C94.287 97.3196 94.5236 96.5788 94.5236 95.7093V93.0624C94.5236 92.1651 94.287 91.4103 93.814 90.7947C93.341 90.1791 92.4889 89.8695 91.2646 89.8695H79.8529V98.8604ZM34.4571 110.581C32.5615 110.581 31.1703 110.498 30.2764 110.331C29.386 110.164 28.9373 109.966 28.9373 109.743L30.6103 106.088C31.2503 106.199 32.8467 106.303 35.3962 106.404C37.9456 106.502 41.4515 106.55 45.9104 106.55H46.7034C47.8999 106.55 48.7521 106.335 49.2529 105.9C49.7537 105.465 50.0042 104.731 50.0042 103.695V102.853C50.0042 101.872 49.8024 101.173 49.399 100.752C48.9955 100.332 48.0947 100.123 46.7034 100.123H37.0065C34.1927 100.123 32.1441 99.5976 30.8607 98.5473C29.5773 97.4969 28.9373 95.7822 28.9373 93.3997V92.7284C28.9373 91.4972 29.1669 90.3633 29.626 89.3268C30.0851 88.2903 30.8711 87.4591 31.9876 86.8261C33.1006 86.1965 34.6344 85.88 36.5857 85.88H47.9556C49.8511 85.88 51.3815 85.9774 52.5536 86.1757C53.7257 86.3704 54.3101 86.5826 54.3101 86.8052L53.4753 90.3355C52.7519 90.252 51.1067 90.1616 48.5434 90.0607C45.98 89.9633 42.5367 89.9146 38.2169 89.9146L37.7578 89.8729C36.4744 89.8729 35.6118 90.1337 35.1666 90.6485C34.7214 91.1667 34.4814 91.8171 34.4571 92.6032V93.3162C34.4571 94.2414 34.7144 94.9335 35.2292 95.3961C35.744 95.8587 36.6031 96.0882 37.7995 96.0882H47.0791C48.8634 96.0882 50.3833 96.2691 51.6354 96.6343C52.891 96.9995 53.8509 97.6638 54.5187 98.6307C55.1865 99.5976 55.5204 101.02 55.5204 102.895V103.566C55.5204 105.667 54.9848 107.361 53.9101 108.648C52.8353 109.935 50.978 110.581 48.3312 110.581H34.4571ZM124.828 85.88L112.582 110.581H118.683L121.399 105.246H136.365L138.831 110.581H145.269L133.065 85.88H124.828ZM134.821 101.131H122.912L128.679 89.6642H129.096L134.821 101.131ZM204.418 85.88V110.581H227.241C229.081 110.581 230.379 110.533 231.13 110.435C231.881 110.335 232.257 110.23 232.257 110.119L230.584 106.547H209.934V99.8689H225.568V95.7091H209.934V89.9111H230.417V85.88H204.418ZM257.379 110.582L257.337 89.873H246.468V85.8419H273.806V89.873H262.895V110.582H257.379ZM290.525 85.88V110.581H296.041V85.88H290.525ZM315.69 110.582V89.2438L315.272 85.8839H321.627L331.073 102.687L340.854 85.8839H346.495V110.585H340.979V94.9165H340.52L338.889 98.572L333.623 108.067H328.566L323.3 98.572L321.627 94.9165H321.209V110.585H315.693L315.69 110.582ZM365.725 85.88V110.581H388.548C390.388 110.581 391.685 110.533 392.437 110.435C393.188 110.335 393.564 110.23 393.564 110.119L391.891 106.547H371.241V99.8689H386.875V95.7091H371.241V89.9111H391.724V85.88H365.725ZM36.8864 22.267V28.2402V28.2434L28.9222 31.4592L36.8864 34.6911V40.6707L21.3491 34.534H21.317V28.4069H21.3491L36.8864 22.267ZM127.405 40.3534V34.3834L135.363 31.1708L127.405 27.9582V21.985L142.92 28.1185H142.958V34.252H142.92L127.405 40.3534ZM120.742 13.5431L111.618 44.6529H117.036L126.161 13.5431H120.742ZM61.9752 27.7434C62.0714 25.3099 61.2602 22.9373 59.7181 21.1386H59.7213C58.9582 20.2889 58.0316 19.6221 57.0056 19.1828C55.9796 18.7436 54.8799 18.5448 53.7737 18.5929C52.5874 18.5384 51.4044 18.7436 50.295 19.1924C49.1857 19.6413 48.1725 20.3274 47.3228 21.2059V19.2405H41.9044V40.9947H47.3228V31.36C47.3228 26.3615 49.0189 23.8639 52.4111 23.8639C52.9786 23.8382 53.5461 23.9504 54.0687 24.1909C54.5881 24.4314 55.053 24.7969 55.4249 25.2554C56.2169 26.3038 56.6209 27.6216 56.5567 28.9617V40.9947H61.9752V27.7434ZM68.8719 10.193V41.3028H74.2904V10.193H68.8719ZM100.386 40.1614H104.903L112.505 18.3688H106.715L102.447 31.4437L98.0517 18.3688H93.826L89.4302 31.402L85.1628 18.3688H79.3724L86.9679 40.1614H91.4822L95.9549 27.3462L100.386 40.1614Z" fill="url(#paint0_linear_19_262)"/>
<defs>
<linearGradient id="paint0_linear_19_262" x1="34.0929" y1="0.662599" x2="527.42" y2="154.197" gradientUnits="userSpaceOnUse">
<stop offset="0.251308" stop-color="#996DFF"/>
<stop offset="0.623787" stop-color="#FF876E"/>
<stop offset="1" stop-color="#FFD072"/>
</linearGradient>
</defs>
</svg>
