<svg width="210" height="53" viewBox="0 0 553 53" fill="none" xmlns="http://www.w3.org/2000/svg">
<path fill-rule="evenodd" clip-rule="evenodd" d="M0.929199 26.4463C0.929199 11.9529 12.6784 0.203735 27.1717 0.203735H127.232C138.989 0.203735 148.94 7.93524 152.279 18.5913C152.821 20.3215 154.348 21.6262 156.161 21.6262C157.974 21.6262 159.502 20.3215 160.044 18.5913C163.382 7.93539 173.333 0.203993 185.09 0.203993H525.786C540.279 0.203993 552.028 11.9532 552.028 26.4465C552.028 40.9399 540.279 52.6891 525.786 52.6891H185.09C173.333 52.6891 163.382 44.9575 160.043 34.3013C159.501 32.5711 157.974 31.2664 156.161 31.2664C154.348 31.2664 152.821 32.5711 152.279 34.3012C148.94 44.9573 138.989 52.6888 127.232 52.6888H27.1718C12.6784 52.6888 0.929199 40.9396 0.929199 26.4463ZM314.537 38.3464C312.693 38.3464 311.25 38.0879 310.213 37.5643C309.172 37.044 308.446 36.2651 308.031 35.2212C307.617 34.1805 307.409 32.8942 307.409 31.3558V22.6522C307.409 20.1539 307.967 18.3117 309.085 17.1288C310.2 15.9459 312.018 15.3512 314.54 15.3512H326.264C328.057 15.3512 329.425 15.4482 330.374 15.6453C331.321 15.8393 331.797 16.0429 331.797 16.2497L331.02 19.4881C330.579 19.4105 329.272 19.3265 327.104 19.2328C324.935 19.1423 321.788 19.097 317.658 19.097H315.671C313.594 19.097 312.556 20.0214 312.556 21.87V31.8244C312.556 32.7099 312.783 33.3919 313.237 33.8734C313.691 34.355 314.505 34.5942 315.671 34.5942H317.27C321.581 34.5942 324.926 34.5489 327.302 34.4584C329.678 34.3679 331.152 34.271 331.723 34.1643L333.321 36.7402C333.321 36.8694 333.107 37.0666 332.679 37.3251C332.251 37.5869 331.464 37.8196 330.323 38.0265C329.178 38.2333 327.532 38.34 325.376 38.34H314.547L314.537 38.3464ZM227.667 38.3461V18.5182L227.279 15.3574H244.536C246.199 15.3574 247.502 15.5804 248.451 16.0199C249.398 16.4627 250.101 17.0412 250.555 17.7554C251.009 18.4729 251.301 19.2324 251.43 20.0404C251.56 20.8484 251.625 21.6144 251.625 22.3448V24.6492C251.625 25.2471 251.534 25.9193 251.352 26.6594C251.171 27.3995 250.834 28.117 250.341 28.8054C249.848 29.4938 249.132 30.0691 248.199 30.5216C247.265 30.9773 246.043 31.2035 244.536 31.2035H240.562C238.925 31.2035 237.398 31.1647 235.985 31.0872C234.568 31.0096 233.512 30.945 232.812 30.8932V38.3493H227.671L227.667 38.3461ZM232.808 27.4545H243.405C244.575 27.4545 245.379 27.1668 245.819 26.5948C246.26 26.0227 246.481 25.3343 246.481 24.5263V22.0668C246.481 21.233 246.26 20.5317 245.819 19.9596C245.379 19.3876 244.584 19.0999 243.443 19.0999H232.808V27.4545ZM190.502 38.3463C188.735 38.3463 187.439 38.2688 186.606 38.1137C185.776 37.9585 185.358 37.7743 185.358 37.5675L186.917 34.1707C187.513 34.2741 189.001 34.3711 191.377 34.4648C193.753 34.5553 197.02 34.6005 201.176 34.6005H201.915C203.03 34.6005 203.824 34.4002 204.291 33.9962C204.757 33.5922 204.991 32.9102 204.991 31.9471V31.165C204.991 30.2536 204.803 29.604 204.427 29.2129C204.051 28.8218 203.211 28.6279 201.915 28.6279H192.878C190.255 28.6279 188.346 28.1399 187.15 27.1639C185.954 26.1878 185.358 24.5945 185.358 22.3806V21.7568C185.358 20.6127 185.572 19.5591 185.999 18.596C186.427 17.6329 187.16 16.8605 188.2 16.2723C189.238 15.6873 190.667 15.3932 192.485 15.3932H203.082C204.848 15.3932 206.274 15.4837 207.367 15.6679C208.459 15.8489 209.004 16.046 209.004 16.2529L208.226 19.5333C207.552 19.4557 206.018 19.3717 203.629 19.278C201.241 19.1875 198.032 19.1422 194.006 19.1422L193.578 19.1034C192.382 19.1034 191.578 19.3458 191.163 19.8242C190.748 20.3057 190.524 20.9101 190.502 21.6405V22.303C190.502 23.1627 190.742 23.8059 191.221 24.2357C191.701 24.6656 192.502 24.8789 193.617 24.8789H202.265C203.928 24.8789 205.344 25.047 206.511 25.3863C207.681 25.7257 208.576 26.343 209.198 27.2414C209.821 28.1399 210.132 29.4618 210.132 31.2038V31.8275C210.132 33.7796 209.633 35.3536 208.631 36.5494C207.629 37.7452 205.898 38.3463 203.432 38.3463H190.502ZM274.723 15.3935L263.31 38.3467H268.996L271.527 33.3889H285.475L287.773 38.3467H293.773L282.399 15.3935H274.723ZM284.036 29.5656H272.937L278.311 18.9099H278.7L284.036 29.5656ZM348.896 15.3935V38.3467H370.166C371.881 38.3467 373.09 38.3015 373.79 38.211C374.491 38.1173 374.841 38.0203 374.841 37.9169L373.281 34.5977H354.037V28.3924H368.607V24.527H354.037V19.1394H373.126V15.3935H348.896ZM398.253 38.3461L398.214 19.1032H388.084V15.3574H413.562V19.1032H403.393V38.3461H398.253ZM429.144 15.3935V38.3467H434.285V15.3935H429.144ZM452.595 38.347V18.5191L452.206 15.3971H458.128L466.931 31.0105L476.046 15.3971H481.304V38.3502H476.163V23.7904H475.735L474.215 27.1871L469.307 36.0103H464.594L459.687 27.1871L458.128 23.7904H457.739V38.3502H452.598L452.595 38.347ZM499.226 15.3935V38.3467H520.496C522.211 38.3467 523.42 38.3015 524.12 38.211C524.82 38.1173 525.17 38.0203 525.17 37.9169L523.611 34.5977H504.367V28.3924H518.937V24.527H504.367V19.1394H523.455V15.3935H499.226ZM35.2851 20.2789V25.8293V25.8323L27.8628 28.8205L35.2851 31.8236V37.38L20.8051 31.6776H20.7753V25.9842H20.8051L35.2851 20.2789ZM119.643 37.0849V31.5375L127.059 28.5522L119.643 25.567V20.0166L134.102 25.716H134.138V31.4153H134.102L119.643 37.0849ZM113.434 12.1721L104.93 41.0801H109.98L118.484 12.1721H113.434ZM58.6664 25.3678C58.7561 23.1065 58.0001 20.9018 56.5629 19.2304H56.5659C55.8547 18.4409 54.9912 17.8212 54.035 17.4131C53.0788 17.0049 52.054 16.8202 51.0231 16.8649C49.9175 16.8142 48.8149 17.0049 47.7811 17.422C46.7472 17.8391 45.803 18.4767 45.0112 19.293V17.4667H39.9614V37.6811H45.0112V28.7284C45.0112 24.0837 46.5919 21.7628 49.7532 21.7628C50.2821 21.739 50.8109 21.8433 51.298 22.0667C51.782 22.2901 52.2153 22.6298 52.5619 23.0558C53.3 24.0301 53.6765 25.2545 53.6167 26.4999V37.6811H58.6664V25.3678ZM65.0944 9.0593V37.9673H70.1441V9.0593H65.0944ZM94.4626 36.9065H98.6727L105.757 16.6563H100.361L96.3839 28.8058L92.2873 16.6563H88.3491L84.2526 28.7671L80.2755 16.6563H74.8791L81.9578 36.9065H86.1649L90.3332 24.9983L94.4626 36.9065Z" fill="url(#paint0_linear_206_329)"/>
<defs>
<linearGradient id="paint0_linear_206_329" x1="10.0605" y1="-17.2545" x2="621.114" y2="-17.2545" gradientUnits="userSpaceOnUse">
<stop offset="0.251308" stop-color="#996DFF"/>
<stop offset="0.623787" stop-color="#FF876E"/>
<stop offset="1" stop-color="#FFD072"/>
</linearGradient>
</defs>
</svg>
