<svg width="9" height="1059" viewBox="0 0 9 1059" fill="none" xmlns="http://www.w3.org/2000/svg">
<rect width="8" height="1" transform="matrix(-1 0 0 1 8.74438 4.97314)" fill="white" fill-opacity="0.1"/>
<rect width="8" height="1" transform="matrix(-1 0 0 1 8.74438 13.9731)" fill="white" fill-opacity="0.1"/>
<rect width="8" height="1" transform="matrix(-1 0 0 1 8.74438 22.9731)" fill="white" fill-opacity="0.1"/>
<rect width="8" height="1" transform="matrix(-1 0 0 1 8.74438 31.9731)" fill="white" fill-opacity="0.1"/>
<rect width="8" height="1" transform="matrix(-1 0 0 1 8.74438 40.9731)" fill="white" fill-opacity="0.1"/>
<rect width="8" height="1" transform="matrix(-1 0 0 1 8.74438 49.9731)" fill="white" fill-opacity="0.1"/>
<rect width="8" height="1" transform="matrix(-1 0 0 1 8.74438 58.9731)" fill="white" fill-opacity="0.1"/>
<rect width="8" height="1" transform="matrix(-1 0 0 1 8.74438 67.9731)" fill="white" fill-opacity="0.1"/>
<rect width="8" height="1" transform="matrix(-1 0 0 1 8.74438 76.9731)" fill="white" fill-opacity="0.1"/>
<rect width="8" height="1" transform="matrix(-1 0 0 1 8.74438 85.9731)" fill="white" fill-opacity="0.1"/>
<rect width="8" height="1" transform="matrix(-1 0 0 1 8.74438 94.9731)" fill="white" fill-opacity="0.1"/>
<rect width="8" height="1" transform="matrix(-1 0 0 1 8.74438 103.973)" fill="white" fill-opacity="0.1"/>
<rect width="8" height="1" transform="matrix(-1 0 0 1 8.74438 112.973)" fill="white" fill-opacity="0.1"/>
<rect width="8" height="1" transform="matrix(-1 0 0 1 8.74438 121.973)" fill="white" fill-opacity="0.1"/>
<rect width="8" height="1" transform="matrix(-1 0 0 1 8.74438 130.973)" fill="white" fill-opacity="0.1"/>
<rect width="8" height="1" transform="matrix(-1 0 0 1 8.74438 139.973)" fill="white" fill-opacity="0.1"/>
<rect width="8" height="1" transform="matrix(-1 0 0 1 8.74438 148.973)" fill="white" fill-opacity="0.1"/>
<rect width="8" height="1" transform="matrix(-1 0 0 1 8.74438 157.973)" fill="white" fill-opacity="0.1"/>
<rect width="8" height="1" transform="matrix(-1 0 0 1 8.74438 166.973)" fill="white" fill-opacity="0.1"/>
<rect width="8" height="1" transform="matrix(-1 0 0 1 8.74438 175.973)" fill="white" fill-opacity="0.1"/>
<rect width="8" height="1" transform="matrix(-1 0 0 1 8.74438 184.973)" fill="white" fill-opacity="0.1"/>
<rect width="8" height="1" transform="matrix(-1 0 0 1 8.74438 193.973)" fill="white" fill-opacity="0.1"/>
<rect width="8" height="1" transform="matrix(-1 0 0 1 8.74438 202.973)" fill="white" fill-opacity="0.1"/>
<rect width="8" height="1" transform="matrix(-1 0 0 1 8.74438 211.973)" fill="white" fill-opacity="0.1"/>
<rect width="8" height="1" transform="matrix(-1 0 0 1 8.74438 220.973)" fill="white" fill-opacity="0.1"/>
<rect width="8" height="1" transform="matrix(-1 0 0 1 8.74438 229.973)" fill="white" fill-opacity="0.1"/>
<rect width="8" height="1" transform="matrix(-1 0 0 1 8.74438 238.973)" fill="white" fill-opacity="0.1"/>
<rect width="8" height="1" transform="matrix(-1 0 0 1 8.74438 247.973)" fill="white" fill-opacity="0.1"/>
<rect width="8" height="1" transform="matrix(-1 0 0 1 8.74438 256.973)" fill="white" fill-opacity="0.1"/>
<rect width="8" height="1" transform="matrix(-1 0 0 1 8.74438 265.973)" fill="white" fill-opacity="0.1"/>
<rect width="8" height="1" transform="matrix(-1 0 0 1 8.74438 274.973)" fill="white" fill-opacity="0.1"/>
<rect width="8" height="1" transform="matrix(-1 0 0 1 8.74438 283.973)" fill="white" fill-opacity="0.1"/>
<rect width="8" height="1" transform="matrix(-1 0 0 1 8.74438 292.973)" fill="white" fill-opacity="0.1"/>
<rect width="8" height="1" transform="matrix(-1 0 0 1 8.74438 301.973)" fill="white" fill-opacity="0.1"/>
<rect width="8" height="1" transform="matrix(-1 0 0 1 8.74438 310.973)" fill="white" fill-opacity="0.1"/>
<rect width="8" height="1" transform="matrix(-1 0 0 1 8.74438 319.973)" fill="white" fill-opacity="0.1"/>
<rect width="8" height="1" transform="matrix(-1 0 0 1 8.74438 328.973)" fill="white" fill-opacity="0.1"/>
<rect width="8" height="1" transform="matrix(-1 0 0 1 8.74438 337.973)" fill="white" fill-opacity="0.1"/>
<rect width="8" height="1" transform="matrix(-1 0 0 1 8.74438 346.973)" fill="white" fill-opacity="0.1"/>
<rect width="8" height="1" transform="matrix(-1 0 0 1 8.74438 355.973)" fill="white" fill-opacity="0.1"/>
<rect width="8" height="1" transform="matrix(-1 0 0 1 8.74438 364.973)" fill="white" fill-opacity="0.1"/>
<rect width="8" height="1" transform="matrix(-1 0 0 1 8.74438 373.973)" fill="white" fill-opacity="0.1"/>
<rect width="8" height="1" transform="matrix(-1 0 0 1 8.74438 382.973)" fill="white" fill-opacity="0.1"/>
<rect width="8" height="1" transform="matrix(-1 0 0 1 8.74438 391.973)" fill="white" fill-opacity="0.1"/>
<rect width="8" height="1" transform="matrix(-1 0 0 1 8.74438 400.973)" fill="white" fill-opacity="0.1"/>
<rect width="8" height="1" transform="matrix(-1 0 0 1 8.74438 409.973)" fill="white" fill-opacity="0.1"/>
<rect width="8" height="1" transform="matrix(-1 0 0 1 8.74438 418.973)" fill="white" fill-opacity="0.1"/>
<rect width="8" height="1" transform="matrix(-1 0 0 1 8.74438 427.973)" fill="white" fill-opacity="0.1"/>
<rect width="8" height="1" transform="matrix(-1 0 0 1 8.74438 436.973)" fill="white" fill-opacity="0.1"/>
<rect width="8" height="1" transform="matrix(-1 0 0 1 8.74438 445.973)" fill="white" fill-opacity="0.1"/>
<rect width="8" height="1" transform="matrix(-1 0 0 1 8.74438 454.973)" fill="white" fill-opacity="0.1"/>
<rect width="8" height="1" transform="matrix(-1 0 0 1 8.74438 463.973)" fill="white" fill-opacity="0.1"/>
<rect width="8" height="1" transform="matrix(-1 0 0 1 8.74438 472.973)" fill="white" fill-opacity="0.1"/>
<rect width="8" height="1" transform="matrix(-1 0 0 1 8.74438 481.973)" fill="white" fill-opacity="0.1"/>
<rect width="8" height="1" transform="matrix(-1 0 0 1 8.74438 490.973)" fill="white" fill-opacity="0.1"/>
<rect width="8" height="1" transform="matrix(-1 0 0 1 8.74438 499.973)" fill="white" fill-opacity="0.1"/>
<rect width="8" height="1" transform="matrix(-1 0 0 1 8.74438 508.973)" fill="white" fill-opacity="0.1"/>
<rect width="8" height="1" transform="matrix(-1 0 0 1 8.74438 517.973)" fill="white" fill-opacity="0.1"/>
<rect width="8" height="1" transform="matrix(-1 0 0 1 8.74438 526.973)" fill="white" fill-opacity="0.1"/>
<rect width="8" height="1" transform="matrix(-1 0 0 1 8.74438 535.973)" fill="white" fill-opacity="0.1"/>
<rect width="8" height="1" transform="matrix(-1 0 0 1 8.74438 544.973)" fill="white" fill-opacity="0.1"/>
<rect width="8" height="1" transform="matrix(-1 0 0 1 8.74438 553.973)" fill="white" fill-opacity="0.1"/>
<rect width="8" height="1" transform="matrix(-1 0 0 1 8.74438 562.973)" fill="white" fill-opacity="0.1"/>
<rect width="8" height="1" transform="matrix(-1 0 0 1 8.74438 571.973)" fill="white" fill-opacity="0.1"/>
<rect width="8" height="1" transform="matrix(-1 0 0 1 8.74438 580.973)" fill="white" fill-opacity="0.1"/>
<rect width="8" height="1" transform="matrix(-1 0 0 1 8.74438 589.973)" fill="white" fill-opacity="0.1"/>
<rect width="8" height="1" transform="matrix(-1 0 0 1 8.74438 598.973)" fill="white" fill-opacity="0.1"/>
<rect width="8" height="1" transform="matrix(-1 0 0 1 8.74438 607.973)" fill="white" fill-opacity="0.1"/>
<rect width="8" height="1" transform="matrix(-1 0 0 1 8.74438 616.973)" fill="white" fill-opacity="0.1"/>
<rect width="8" height="1" transform="matrix(-1 0 0 1 8.74438 625.973)" fill="white" fill-opacity="0.1"/>
<rect width="8" height="1" transform="matrix(-1 0 0 1 8.74438 634.973)" fill="white" fill-opacity="0.1"/>
<rect width="8" height="1" transform="matrix(-1 0 0 1 8.74438 643.973)" fill="white" fill-opacity="0.1"/>
<rect width="8" height="1" transform="matrix(-1 0 0 1 8.74438 652.973)" fill="white" fill-opacity="0.1"/>
<rect width="8" height="1" transform="matrix(-1 0 0 1 8.74438 661.973)" fill="white" fill-opacity="0.1"/>
<rect width="8" height="1" transform="matrix(-1 0 0 1 8.74438 670.973)" fill="white" fill-opacity="0.1"/>
<rect width="8" height="1" transform="matrix(-1 0 0 1 8.74438 679.973)" fill="white" fill-opacity="0.1"/>
<rect width="8" height="1" transform="matrix(-1 0 0 1 8.74438 688.973)" fill="white" fill-opacity="0.1"/>
<rect width="8" height="1" transform="matrix(-1 0 0 1 8.74438 697.973)" fill="white" fill-opacity="0.1"/>
<rect width="8" height="1" transform="matrix(-1 0 0 1 8.74438 706.973)" fill="white" fill-opacity="0.1"/>
<rect width="8" height="1" transform="matrix(-1 0 0 1 8.74438 715.973)" fill="white" fill-opacity="0.1"/>
<rect width="8" height="1" transform="matrix(-1 0 0 1 8.74438 724.973)" fill="white" fill-opacity="0.1"/>
<rect width="8" height="1" transform="matrix(-1 0 0 1 8.74438 733.973)" fill="white" fill-opacity="0.1"/>
<rect width="8" height="1" transform="matrix(-1 0 0 1 8.74438 742.973)" fill="white" fill-opacity="0.1"/>
<rect width="8" height="1" transform="matrix(-1 0 0 1 8.74438 751.973)" fill="white" fill-opacity="0.1"/>
<rect width="8" height="1" transform="matrix(-1 0 0 1 8.74438 760.973)" fill="white" fill-opacity="0.1"/>
<rect width="8" height="1" transform="matrix(-1 0 0 1 8.74438 769.973)" fill="white" fill-opacity="0.1"/>
<rect width="8" height="1" transform="matrix(-1 0 0 1 8.74438 778.973)" fill="white" fill-opacity="0.1"/>
<rect width="8" height="1" transform="matrix(-1 0 0 1 8.74438 787.973)" fill="white" fill-opacity="0.1"/>
<rect width="8" height="1" transform="matrix(-1 0 0 1 8.74438 796.973)" fill="white" fill-opacity="0.1"/>
<rect width="8" height="1" transform="matrix(-1 0 0 1 8.74438 805.973)" fill="white" fill-opacity="0.1"/>
<rect width="8" height="1" transform="matrix(-1 0 0 1 8.74438 814.973)" fill="white" fill-opacity="0.1"/>
<rect width="8" height="1" transform="matrix(-1 0 0 1 8.74438 823.973)" fill="white" fill-opacity="0.1"/>
<rect width="8" height="1" transform="matrix(-1 0 0 1 8.74438 832.973)" fill="white" fill-opacity="0.1"/>
<rect width="8" height="1" transform="matrix(-1 0 0 1 8.74438 841.973)" fill="white" fill-opacity="0.1"/>
<rect width="8" height="1" transform="matrix(-1 0 0 1 8.74438 850.973)" fill="white" fill-opacity="0.1"/>
<rect width="8" height="1" transform="matrix(-1 0 0 1 8.74438 859.973)" fill="white" fill-opacity="0.1"/>
<rect width="8" height="1" transform="matrix(-1 0 0 1 8.74438 868.973)" fill="white" fill-opacity="0.1"/>
<rect width="8" height="1" transform="matrix(-1 0 0 1 8.74438 877.973)" fill="white" fill-opacity="0.1"/>
<rect width="8" height="1" transform="matrix(-1 0 0 1 8.74438 886.973)" fill="white" fill-opacity="0.1"/>
<rect width="8" height="1" transform="matrix(-1 0 0 1 8.74438 895.973)" fill="white" fill-opacity="0.1"/>
<rect width="8" height="1" transform="matrix(-1 0 0 1 8.74438 904.973)" fill="white" fill-opacity="0.1"/>
<rect width="8" height="1" transform="matrix(-1 0 0 1 8.74438 913.973)" fill="white" fill-opacity="0.1"/>
<rect width="8" height="1" transform="matrix(-1 0 0 1 8.74438 922.973)" fill="white" fill-opacity="0.1"/>
<rect width="8" height="1" transform="matrix(-1 0 0 1 8.74438 931.973)" fill="white" fill-opacity="0.1"/>
<rect width="8" height="1" transform="matrix(-1 0 0 1 8.74438 940.973)" fill="white" fill-opacity="0.1"/>
<rect width="8" height="1" transform="matrix(-1 0 0 1 8.74438 949.973)" fill="white" fill-opacity="0.1"/>
<rect width="8" height="1" transform="matrix(-1 0 0 1 8.74438 958.973)" fill="white" fill-opacity="0.1"/>
<rect width="8" height="1" transform="matrix(-1 0 0 1 8.74438 967.973)" fill="white" fill-opacity="0.1"/>
<rect width="8" height="1" transform="matrix(-1 0 0 1 8.74438 976.973)" fill="white" fill-opacity="0.1"/>
<rect width="8" height="1" transform="matrix(-1 0 0 1 8.74438 985.973)" fill="white" fill-opacity="0.1"/>
<rect width="8" height="1" transform="matrix(-1 0 0 1 8.74438 994.973)" fill="white" fill-opacity="0.1"/>
<rect width="8" height="1" transform="matrix(-1 0 0 1 8.74438 1003.97)" fill="white" fill-opacity="0.1"/>
<rect width="8" height="1" transform="matrix(-1 0 0 1 8.74438 1012.97)" fill="white" fill-opacity="0.1"/>
<rect width="8" height="1" transform="matrix(-1 0 0 1 8.74438 1021.97)" fill="white" fill-opacity="0.1"/>
<rect width="8" height="1" transform="matrix(-1 0 0 1 8.74438 1030.97)" fill="white" fill-opacity="0.1"/>
<rect width="8" height="1" transform="matrix(-1 0 0 1 8.74438 1039.97)" fill="white" fill-opacity="0.1"/>
<rect width="8" height="1" transform="matrix(-1 0 0 1 8.74438 1048.97)" fill="white" fill-opacity="0.1"/>
<rect width="8" height="1" transform="matrix(-1 0 0 1 8.74438 1057.97)" fill="white" fill-opacity="0.1"/>
</svg>
